<svg width="48" height="48" viewBox="0 0 48 48" fill="none" xmlns="http://www.w3.org/2000/svg">
<path d="M0 24C0 28.7467 1.40758 33.3869 4.04473 37.3337C6.68188 41.2805 10.4302 44.3566 14.8156 46.1731C19.201 47.9896 24.0266 48.4649 28.6822 47.5388C33.3377 46.6128 37.6141 44.327 40.9706 40.9706C44.327 37.6141 46.6128 33.3377 47.5388 28.6822C48.4649 24.0266 47.9896 19.201 46.1731 14.8156C44.3566 10.4302 41.2805 6.68188 37.3337 4.04473C33.3869 1.40758 28.7467 0 24 0C20.8483 0 17.7274 0.620778 14.8156 1.82689C11.9038 3.033 9.25804 4.80083 7.02944 7.02944C2.52856 11.5303 0 17.6348 0 24ZM28.464 15.144L35.328 22.344C35.4296 22.4481 35.5109 22.5702 35.568 22.704C35.6699 22.8169 35.7511 22.9469 35.808 23.088C35.935 23.3753 36.0005 23.6859 36.0005 24C36.0005 24.3141 35.935 24.6247 35.808 24.912C35.6938 25.2066 35.5225 25.4757 35.304 25.704L28.104 32.904C27.6521 33.3559 27.0391 33.6098 26.4 33.6098C25.7609 33.6098 25.1479 33.3559 24.696 32.904C24.2441 32.4521 23.9902 31.8391 23.9902 31.2C23.9902 30.5609 24.2441 29.9479 24.696 29.496L27.816 26.4H14.4C13.7635 26.4 13.153 26.1471 12.7029 25.6971C12.2529 25.247 12 24.6365 12 24C12 23.3635 12.2529 22.753 12.7029 22.3029C13.153 21.8529 13.7635 21.6 14.4 21.6H27.984L24.984 18.456C24.5448 17.9945 24.3069 17.3775 24.3227 16.7406C24.3384 16.1037 24.6065 15.4992 25.068 15.06C25.5295 14.6208 26.1465 14.3829 26.7834 14.3987C27.4203 14.4144 28.0248 14.6825 28.464 15.144Z" fill="#FFDBA0"/>
</svg>
