<svg width="48" height="48" viewBox="0 0 48 48" fill="none" xmlns="http://www.w3.org/2000/svg">
<path id="Vector" d="M48 24C48 19.2533 46.5924 14.6131 43.9553 10.6663C41.3181 6.71954 37.5698 3.6434 33.1844 1.8269C28.799 0.0103932 23.9734 -0.464888 19.3178 0.46116C14.6623 1.3872 10.3859 3.67299 7.02945 7.02945C3.67299 10.3859 1.38721 14.6623 0.461165 19.3178C-0.464884 23.9734 0.0103966 28.799 1.8269 33.1844C3.6434 37.5698 6.71954 41.3181 10.6663 43.9553C14.6131 46.5924 19.2533 48 24 48C27.1517 48 30.2726 47.3792 33.1844 46.1731C36.0962 44.967 38.742 43.1992 40.9706 40.9706C45.4714 36.4697 48 30.3652 48 24ZM19.536 32.856L12.672 25.656C12.5704 25.5519 12.4891 25.4298 12.432 25.296C12.3301 25.1831 12.2489 25.0531 12.192 24.912C12.065 24.6247 11.9995 24.3141 11.9995 24C11.9995 23.6859 12.065 23.3753 12.192 23.088C12.3062 22.7934 12.4775 22.5243 12.696 22.296L19.896 15.096C20.3479 14.6441 20.9609 14.3902 21.6 14.3902C22.2391 14.3902 22.8521 14.6441 23.304 15.096C23.7559 15.5479 24.0098 16.1609 24.0098 16.8C24.0098 17.4391 23.7559 18.0521 23.304 18.504L20.184 21.6L33.6 21.6C34.2365 21.6 34.847 21.8529 35.2971 22.3029C35.7471 22.753 36 23.3635 36 24C36 24.6365 35.7471 25.247 35.2971 25.6971C34.847 26.1471 34.2365 26.4 33.6 26.4L20.016 26.4L23.016 29.544C23.4552 30.0055 23.6931 30.6225 23.6773 31.2594C23.6616 31.8963 23.3935 32.5008 22.932 32.94C22.4705 33.3792 21.8535 33.6171 21.2166 33.6013C20.5797 33.5856 19.9752 33.3175 19.536 32.856Z" fill="#FFDBA0"/>
</svg>
