<svg width="32" height="32" viewBox="0 0 32 32" xmlns="http://www.w3.org/2000/svg">
<g id="Vector">
<path d="M31.4267 18.3328C31.4267 17.8325 31.3046 17.2928 31.0251 16.7477C31.0934 16.5211 31.1425 16.2923 31.1798 16.0629C31.3025 15.9899 31.4225 15.9003 31.5297 15.7813C32.2443 14.9851 31.9883 13.4357 31.7723 12.5829C31.75 12.4979 31.7163 12.4163 31.6721 12.3403C31.7376 12.0992 31.7723 11.8475 31.7723 11.5845C31.7729 5.19627 24.6977 0 16.0002 0C7.30269 0 0.227559 5.19627 0.227559 11.5845C0.227559 11.8469 0.262758 12.0992 0.327824 12.3403C0.284 12.4158 0.250459 12.4969 0.228092 12.5813C0.0120941 13.4336 -0.243903 14.9803 0.467556 15.7755C0.537956 16.2016 0.656355 16.6299 0.836619 17.0539C0.667335 17.459 0.578398 17.8932 0.574755 18.3323C0.574755 18.7397 0.613155 19.1349 0.683021 19.5211C0.41401 20.1499 0.274347 20.8264 0.272358 21.5104C0.272892 26.296 3.0014 32 16.0002 32C28.999 32 31.7275 26.296 31.7275 21.5109C31.7255 20.8272 31.5861 20.1509 31.3174 19.5221C31.3878 19.136 31.4267 18.7403 31.4267 18.3328ZM30.7062 11.5845C30.7062 14.2773 24.7964 16.0864 16.0002 16.0864C7.20402 16.0864 1.29421 14.2768 1.29421 11.5845C1.29421 5.76587 7.89148 1.03253 16.0002 1.03253C24.1089 1.03253 30.7062 5.76587 30.7062 11.5845ZM16.0002 30.9675C6.27177 30.9675 1.33901 27.7861 1.33901 21.5109C1.33901 21.4533 1.34008 21.3952 1.34275 21.3376C3.3246 25.304 8.24401 27.312 16.0007 27.312C23.7569 27.312 28.6753 25.3045 30.6577 21.3392C30.6598 21.3963 30.6609 21.4539 30.6609 21.5109C30.6609 27.7867 25.7286 30.9675 16.0002 30.9675ZM30.6406 18.0299L30.6347 18.0187L30.6086 18.1152C29.3265 21.2843 25.3004 23.4779 17.4471 23.7152L14.8519 26.2597C14.7752 26.2581 14.6946 26.2581 14.6184 26.256L11.7613 23.5312C5.74697 22.9072 2.52727 20.896 1.39821 18.1387L1.36568 18.0192L1.35608 18.0395C1.34435 18.0091 1.32941 17.9803 1.31821 17.9499C2.16407 19.2747 3.62806 20.5205 5.92297 21.4976C7.72348 22.2645 9.32027 22.5632 10.7053 22.5237L8.49308 20.4139C7.79531 20.2345 7.11241 20.0017 6.45043 19.7173C5.66309 19.3865 4.90955 18.9803 4.20032 18.5045C4.37418 18.5664 4.55605 18.6085 4.75498 18.6085C5.17951 18.6085 5.59017 18.464 5.9523 18.336C6.06217 18.2976 6.21897 18.2421 6.34377 18.2069C6.39923 18.3045 6.4611 18.4251 6.50803 18.5179C6.77363 19.0384 7.13629 19.7499 7.89948 19.9696C8.03762 20.0085 8.18215 20.0288 8.32988 20.0288C8.88614 20.0288 9.3656 19.7509 9.78853 19.5061C9.8888 19.4475 10.0221 19.3707 10.1315 19.3157C10.2024 19.4027 10.2824 19.512 10.3437 19.5957C10.6856 20.0597 11.1539 20.6955 11.9266 20.7963C11.9933 20.8053 12.0589 20.8091 12.125 20.8091C12.7853 20.8091 13.3074 20.3957 13.7272 20.0629C13.8157 19.9925 13.9314 19.9003 14.029 19.8309C14.1117 19.9088 14.2072 20.0069 14.2808 20.0827C14.7021 20.5163 15.2269 21.0571 16.0007 21.0571C16.7746 21.0571 17.2989 20.5168 17.7207 20.0827C17.7943 20.0069 17.8893 19.9088 17.9725 19.8309C18.0706 19.9003 18.1858 19.9925 18.2743 20.0624C18.6935 20.3952 19.2162 20.8091 19.8764 20.8091C19.942 20.8091 20.0087 20.8048 20.0738 20.7968C20.2502 20.7735 20.4216 20.721 20.581 20.6416L19.3191 21.8795C20.6908 22.1989 22.3553 22.2133 24.3356 21.7808C28.2593 20.9243 30.2593 19.0096 30.9622 16.9317C30.8895 17.307 30.7818 17.6747 30.6406 18.0299ZM1.94168 16.3275L2.01314 16.328C2.13581 16.328 2.26381 16.3232 2.39287 16.3195C2.49954 16.3152 2.60674 16.3109 2.7118 16.3109C2.76567 16.3109 2.8094 16.3125 2.84513 16.3141C2.87713 16.4213 2.9102 16.5584 2.93527 16.6629C3.03126 17.0592 3.15606 17.5531 3.45313 17.9509C2.8254 17.4352 2.32354 16.8901 1.94168 16.3275ZM20.9298 20.4133C21.2263 20.1744 21.4567 19.8672 21.6577 19.5947C21.7201 19.5109 21.8007 19.4016 21.8711 19.3147C21.9799 19.3701 22.1121 19.4464 22.2129 19.5051C22.6353 19.7504 23.1137 20.0277 23.6705 20.0277C23.8177 20.0277 23.9628 20.0075 24.1009 19.9685C24.8641 19.7488 25.2273 19.0368 25.4924 18.5163C25.5398 18.4235 25.6012 18.3035 25.6566 18.2064C25.7814 18.2411 25.9388 18.2971 26.0481 18.3355C26.4108 18.4629 26.8209 18.608 27.246 18.608C27.3638 18.608 27.4753 18.5915 27.5852 18.5696C26.5804 19.2144 25.2993 19.7445 23.6908 20.0955C22.784 20.2973 21.8587 20.4038 20.9298 20.4133ZM28.7105 17.696C28.8934 17.3552 28.9878 16.9797 29.0641 16.6651C29.0891 16.5611 29.1222 16.4235 29.1537 16.3168C29.1889 16.3147 29.2321 16.3136 29.2843 16.3136C29.3899 16.3136 29.4982 16.3179 29.6059 16.3211C29.6769 16.3237 29.7451 16.3243 29.815 16.3264C29.5127 16.8324 29.1409 17.2934 28.7105 17.696ZM30.7601 15.0917C30.6059 15.2629 30.3174 15.2981 29.9894 15.2981C29.7633 15.2981 29.5174 15.2816 29.2854 15.2816C28.9702 15.2816 28.6774 15.312 28.4833 15.4539C27.99 15.8149 28.1137 17.2037 27.5169 17.5173C27.4374 17.5584 27.3468 17.576 27.2465 17.576C26.7446 17.576 26.0225 17.1403 25.4908 17.1397C25.4033 17.138 25.3162 17.1528 25.2342 17.1835C24.6551 17.4107 24.4519 18.7936 23.8145 18.9765C23.7679 18.9897 23.7196 18.9962 23.6711 18.9957C23.11 18.9957 22.3404 18.216 21.7537 18.216C21.7137 18.216 21.6748 18.2197 21.6359 18.2272C21.0194 18.352 20.5922 19.6859 19.9399 19.7717C19.9191 19.7739 19.8972 19.7755 19.8764 19.7755C19.2722 19.7755 18.5527 18.7173 17.9277 18.7173L17.8941 18.7184C17.2605 18.7584 16.6557 20.0235 16.0013 20.0235C15.3463 20.0235 14.7426 18.7584 14.109 18.7184C14.0977 18.7178 14.0863 18.7174 14.0749 18.7173C13.4498 18.7173 12.7298 19.7755 12.1261 19.7755C12.1049 19.7756 12.0837 19.7743 12.0626 19.7717C11.4104 19.6859 10.9848 18.352 10.3667 18.2272C10.3279 18.2194 10.2884 18.2156 10.2488 18.216C9.66213 18.216 8.89201 18.9957 8.33041 18.9957C8.28192 18.9962 8.23362 18.9897 8.18695 18.9765C7.54909 18.7931 7.34589 17.4096 6.76616 17.1835C6.68417 17.1529 6.59713 17.138 6.50963 17.1397C5.97844 17.1397 5.25738 17.5755 4.75551 17.5755C4.65525 17.5755 4.56352 17.5579 4.48352 17.5163C3.88726 17.2016 4.00939 15.8128 3.51766 15.4528C3.32193 15.3093 3.02806 15.2795 2.71233 15.2795C2.48087 15.2795 2.23767 15.296 2.01314 15.296C1.68354 15.296 1.39395 15.2613 1.23982 15.0885C0.996618 14.8176 1.01315 14.1877 1.08035 13.6624C3.35873 16.1712 9.8488 17.1184 16.0007 17.1184C22.1532 17.1184 28.6427 16.1712 30.9206 13.6624C30.9878 14.1888 31.0038 14.8197 30.7601 15.0917Z"/>
<path d="M6.92142 7.23731L6.11396 6.46291L5.3065 7.23731L6.11396 8.01117L6.92142 7.23731ZM10.0947 6.73917L10.9016 5.96477L10.0947 5.19037L9.28726 5.96477L10.0947 6.73917ZM13.1608 9.50024L12.3539 8.72584L11.5464 9.50024L12.3539 10.2741L13.1608 9.50024ZM15.9517 6.72157L15.4141 6.20531L14.8755 6.72157L15.4141 7.23731L15.9517 6.72157ZM24.8786 8.72584L25.4172 9.24157L25.9559 8.72584L25.4172 8.21011L24.8786 8.72584ZM29.2241 9.24157L28.686 8.72584L28.1473 9.24157L28.686 9.75784L29.2241 9.24157ZM23.0061 5.44851L22.4685 4.93224L21.9298 5.44851L22.4685 5.96477L23.0061 5.44851ZM6.72462 4.80371L6.18703 4.28744L5.64836 4.80371L6.18703 5.31997L6.72462 4.80371ZM3.85318 7.23731L3.31505 6.72157L2.77693 7.23731L3.31505 7.75357L3.85318 7.23731ZM6.11396 10.6453L6.65262 11.1616L7.19022 10.6453L6.65262 10.129L6.11396 10.6453ZM13.4296 2.73917L12.892 2.22291L12.3539 2.73917L12.892 3.25544L13.4296 2.73917ZM18.5101 2.22291L17.9725 1.70664L17.4338 2.22291L17.9725 2.73917L18.5101 2.22291ZM10.0942 3.25544L9.55659 2.73917L9.01846 3.25544L9.55659 3.77117L10.0942 3.25544ZM25.382 4.48051L24.8444 3.96477L24.3058 4.48051L24.8444 4.99677L25.382 4.48051ZM18.78 11.7402L19.5869 10.9658L18.78 10.1914L17.972 10.9658L18.78 11.7402ZM18.3224 6.99677L17.5154 6.22291L16.708 6.99677L17.5154 7.77117L18.3224 6.99677ZM21.2967 4.02931L20.4898 3.25544L19.6818 4.02931L20.4898 4.80371L21.2967 4.02931ZM22.0093 7.34184L22.8162 8.11624L23.6237 7.34184L22.8162 6.56744L22.0093 7.34184ZM27.0322 6.22291L26.2247 5.44851L25.4172 6.22291L26.2247 6.99677L27.0322 6.22291ZM23.6237 11.5306L24.4311 10.7568L23.6237 9.98237L22.8162 10.7568L23.6237 11.5306ZM3.31452 9.41704L4.12251 10.1914L4.92944 9.41704L4.12251 8.64318L3.31452 9.41704Z" />
</g>
</svg>
