<svg width="36" height="36" viewBox="0 0 36 36" fill="none" xmlns="http://www.w3.org/2000/svg">
<g id="ion:beer">
<path id="Vector" d="M27.5625 14.625H25.875V14.2214C26.4422 13.5799 26.8144 12.7897 26.9478 11.9438C27.0812 11.0979 26.9701 10.2315 26.6277 9.44662C26.2854 8.6617 25.7259 7.9909 25.0152 7.51318C24.3045 7.03547 23.4721 6.7707 22.616 6.75004C22.2571 5.49709 21.5902 4.35396 20.6761 3.42497C19.9617 2.6938 19.1078 2.11349 18.165 1.71843C17.2222 1.32336 16.2097 1.12158 15.1875 1.12504C13.0844 1.12504 11.1248 1.98848 9.63279 3.56348C8.90049 3.33016 8.11592 3.31624 7.37582 3.52346C6.63571 3.73068 5.97243 4.14996 5.46775 4.72962C4.96308 5.30927 4.63908 6.02395 4.5357 6.78553C4.43233 7.54712 4.55409 8.3223 4.88599 9.01551C4.35337 9.48824 3.94074 10.0808 3.6821 10.7443C3.42345 11.4078 3.32621 12.1233 3.39838 12.8318C3.47055 13.5402 3.71008 14.2214 4.0972 14.8191C4.48433 15.4169 5.00798 15.914 5.62497 16.2697V30.9375C5.62609 31.9815 6.04129 32.9824 6.77947 33.7205C7.51766 34.4587 8.51853 34.8739 9.56247 34.875H21.9375C22.9814 34.8739 23.9823 34.4587 24.7205 33.7205C25.4587 32.9824 25.8739 31.9815 25.875 30.9375V30.375H27.5625C28.9047 30.3736 30.1915 29.8397 31.1406 28.8906C32.0896 27.9415 32.6235 26.6547 32.625 25.3125V19.6875C32.6235 18.3453 32.0896 17.0585 31.1406 16.1095C30.1915 15.1604 28.9047 14.6265 27.5625 14.625ZM12.375 29.25C12.375 29.5484 12.2564 29.8346 12.0455 30.0455C11.8345 30.2565 11.5483 30.375 11.25 30.375C10.9516 30.375 10.6655 30.2565 10.4545 30.0455C10.2435 29.8346 10.125 29.5484 10.125 29.25V18C10.125 17.7017 10.2435 17.4155 10.4545 17.2045C10.6655 16.9936 10.9516 16.875 11.25 16.875C11.5483 16.875 11.8345 16.9936 12.0455 17.2045C12.2564 17.4155 12.375 17.7017 12.375 18V29.25ZM16.875 29.25C16.875 29.5484 16.7564 29.8346 16.5455 30.0455C16.3345 30.2565 16.0483 30.375 15.75 30.375C15.4516 30.375 15.1655 30.2565 14.9545 30.0455C14.7435 29.8346 14.625 29.5484 14.625 29.25V18C14.625 17.7017 14.7435 17.4155 14.9545 17.2045C15.1655 16.9936 15.4516 16.875 15.75 16.875C16.0483 16.875 16.3345 16.9936 16.5455 17.2045C16.7564 17.4155 16.875 17.7017 16.875 18V29.25ZM21.375 29.25C21.375 29.5484 21.2564 29.8346 21.0455 30.0455C20.8345 30.2565 20.5483 30.375 20.25 30.375C19.9516 30.375 19.6655 30.2565 19.4545 30.0455C19.2435 29.8346 19.125 29.5484 19.125 29.25V18C19.125 17.7017 19.2435 17.4155 19.4545 17.2045C19.6655 16.9936 19.9516 16.875 20.25 16.875C20.5483 16.875 20.8345 16.9936 21.0455 17.2045C21.2564 17.4155 21.375 17.7017 21.375 18V29.25ZM22.5 13.5C21.9143 13.5 21.0551 13.1358 20.6233 12.7048C20.4125 12.4938 20.1264 12.3752 19.8281 12.375H11.25C11.0195 12.3756 10.7948 12.4469 10.6061 12.5793C10.4175 12.7117 10.2741 12.8989 10.1953 13.1154C9.71505 14.4289 8.53591 14.625 7.87497 14.625C7.27824 14.625 6.70594 14.388 6.28398 13.966C5.86203 13.5441 5.62497 12.9718 5.62497 12.375C5.62497 11.7783 5.86203 11.206 6.28398 10.7841C6.70594 10.3621 7.27824 10.125 7.87497 10.125C7.8813 10.125 8.51622 10.149 9.0281 10.5329C9.14629 10.6215 9.28078 10.686 9.42389 10.7227C9.56701 10.7593 9.71595 10.7674 9.8622 10.7465C10.0085 10.7257 10.1492 10.6762 10.2763 10.6009C10.4034 10.5256 10.5145 10.426 10.6031 10.3079C10.6917 10.1897 10.7562 10.0552 10.7929 9.91206C10.8296 9.76895 10.8377 9.62001 10.8168 9.47376C10.7959 9.32751 10.7464 9.1868 10.6711 9.05968C10.5959 8.93255 10.4963 8.8215 10.3781 8.73286C9.64918 8.20132 8.77671 7.90232 7.87497 7.87504C7.54377 7.87525 7.21362 7.91227 6.8906 7.98543C6.77897 7.72871 6.73296 7.44824 6.75673 7.1693C6.78049 6.89037 6.87328 6.62172 7.02672 6.38758C7.18017 6.15343 7.38946 5.96114 7.63573 5.82802C7.882 5.69491 8.15753 5.62515 8.43747 5.62504C8.70325 5.62377 8.96549 5.68587 9.20247 5.80619C9.43945 5.92651 9.64433 6.1016 9.80013 6.31692C9.92691 6.4918 10.0377 6.6777 10.1313 6.87239C10.1618 7.15909 10.3013 7.42313 10.5208 7.61C10.7404 7.79687 11.0233 7.8923 11.3112 7.87661C11.5991 7.86091 11.87 7.73527 12.068 7.52564C12.2659 7.316 12.3758 7.03837 12.375 6.75004C12.375 6.27403 12.1211 5.6834 11.6184 4.99223C11.5861 4.94793 11.5481 4.90434 11.5165 4.86145C12.543 3.89817 13.8262 3.37504 15.1875 3.37504C15.9109 3.37296 16.6274 3.51615 17.2945 3.79611C17.9615 4.07608 18.5656 4.48713 19.0708 5.00489C19.7027 5.65326 20.1692 6.44424 20.4309 7.31097C20.6926 8.1777 20.7417 9.0947 20.5741 9.98442C20.5465 10.1296 20.5477 10.2787 20.5778 10.4234C20.6078 10.5681 20.666 10.7054 20.7491 10.8276C20.8323 10.9498 20.9386 11.0544 21.0622 11.1354C21.1857 11.2165 21.324 11.2724 21.4692 11.3C21.5387 11.313 21.6094 11.3196 21.6801 11.3197C21.9417 11.3194 22.195 11.228 22.3965 11.0612C22.5979 10.8943 22.735 10.6625 22.784 10.4056C22.8697 9.95532 22.9158 9.49843 22.9218 9.04012C23.4718 9.14533 23.9627 9.45179 24.2988 9.89963C24.6348 10.3475 24.7918 10.9045 24.7391 11.4619C24.6863 12.0193 24.4277 12.5371 24.0136 12.914C23.5996 13.2908 23.0599 13.4998 22.5 13.5ZM30.375 25.3125C30.375 26.0585 30.0787 26.7738 29.5512 27.3013C29.0238 27.8287 28.3084 28.125 27.5625 28.125H25.875V16.875H27.5625C28.3084 16.875 29.0238 17.1714 29.5512 17.6988C30.0787 18.2263 30.375 18.9416 30.375 19.6875V25.3125Z" fill="#706D6D"/>
</g>
</svg>
