<svg width="36" height="36" viewBox="0 0 36 36" fill="none" xmlns="http://www.w3.org/2000/svg">
<path id="Vector" d="M17.9985 3.12466e-08C14.5871 0.00691726 11.2482 0.985335 8.37273 2.82072L9.05386 3.80636C11.741 2.10226 14.8548 1.19744 18.0359 1.19744C20.0793 1.19744 22.1078 1.57014 24.0165 2.29909L24.488 1.19819C22.4291 0.406043 20.242 -0.000130074 18.0359 3.12466e-08H17.9985ZM25.7305 1.7303L25.259 2.8312C29.3233 4.7703 32.4371 8.26234 33.8967 12.5207L35.0419 12.1765C33.9641 7.2969 30.8503 3.39025 25.7305 1.7303ZM17.991 2.6194C15.1167 2.62763 12.2949 3.44414 9.86225 4.97611L17.8937 16.5771C20.229 12.401 21.988 8.0453 23.4551 3.60729C21.726 2.95394 19.8847 2.6194 18.0359 2.6194H17.991ZM20.1916 3.28772L21.6212 5.0734L20.5733 5.91536L19.1437 4.12892L20.1916 3.28772ZM7.26494 3.58708C1.65715 6.60089 0.419125 11.1661 0.16164 16.1654L1.35775 16.2403C1.83604 11.6077 4.22302 7.37923 7.94608 4.57198L7.26494 3.58708ZM15.506 4.1162C16.1197 4.1162 16.6886 4.27486 17.1452 4.58021C17.6018 4.88481 17.9685 5.38474 17.9685 5.9872C17.9685 6.59341 17.6018 7.08735 17.1452 7.39419C16.6886 7.70104 16.1197 7.8582 15.506 7.8582C14.8922 7.8582 14.3233 7.70104 13.8667 7.39419C13.4102 7.08735 13.0434 6.59341 13.0434 5.9872C13.0434 5.38474 13.4102 4.88481 13.8667 4.58021C14.3233 4.27486 14.8922 4.1162 15.506 4.1162ZM24.6976 4.1394C23.3278 8.57667 21.5763 12.8575 19.226 16.8989L24.3383 15.3721C24.0988 15.0054 23.9641 14.5564 23.9641 14.0849C23.9641 12.9623 24.75 11.9295 25.8653 11.9295C26.9805 11.9295 27.7665 12.9623 27.7665 14.0849C27.7665 14.1747 27.759 14.2645 27.7515 14.3618L32.5344 12.9324C31.1946 9.07809 28.3727 5.91086 24.6976 4.1394ZM15.506 5.46332C15.1317 5.46332 14.8099 5.57109 14.6152 5.69982C14.4206 5.82779 14.3907 5.92808 14.3907 5.9872C14.3907 6.04632 14.4206 6.14661 14.6152 6.27459C14.8099 6.40631 15.1317 6.51108 15.506 6.51108C15.8802 6.51108 16.2021 6.40631 16.3967 6.27459C16.5913 6.14661 16.6212 6.04632 16.6212 5.9872C16.6212 5.92808 16.5913 5.82779 16.3967 5.69982C16.2021 5.57109 15.8802 5.46332 15.506 5.46332ZM8.75446 5.74173C5.38919 8.29976 3.22676 12.1316 2.77841 16.3301C7.46704 16.375 12.1452 16.4648 16.6961 17.1982L15.2664 15.1327L13.8817 15.8885L13.238 14.7061L14.4955 14.0175L10.229 7.87317L8.49997 9.24274L7.66165 8.18001L9.45806 6.75805L8.75446 5.74173ZM26.2395 6.77302L27.1527 8.27731L26 8.9808L25.0868 7.47652L26.2395 6.77302ZM18.2679 8.50183L18.8518 9.71423L16.5913 10.7844L16.0075 9.57204L18.2679 8.50183ZM8.11075 10.1034C9.38321 10.1034 10.3263 11.2709 10.3263 12.5731C10.3263 13.8753 9.38321 15.0428 8.11075 15.0428C6.83829 15.0428 5.89518 13.8753 5.89518 12.5731C5.89518 11.2709 6.83829 10.1034 8.11075 10.1034ZM30.4162 10.7994L30.6931 12.865L29.3608 13.0446L29.0838 10.979L30.4162 10.7994ZM8.11075 11.4505C7.6841 11.4505 7.24249 11.8921 7.24249 12.5731C7.24249 13.2542 7.6841 13.6957 8.11075 13.6957C8.5374 13.6957 8.97901 13.2542 8.97901 12.5731C8.97901 11.8921 8.5374 11.4505 8.11075 11.4505ZM25.8653 13.2766C25.6257 13.2766 25.3114 13.5685 25.3114 14.0849C25.3114 14.6013 25.6257 14.8932 25.8653 14.8932C26.1048 14.8932 26.4192 14.6013 26.4192 14.0849C26.4192 13.5685 26.1048 13.2766 25.8653 13.2766ZM35.4311 13.4712L34.2784 13.808C34.6228 15.1626 34.8024 16.5621 34.8024 17.9616C34.8024 21.4866 33.6946 24.9217 31.6287 27.7806L32.5719 28.5215C34.8024 25.4531 36 21.756 36 17.9616C36 16.4498 35.8129 14.9381 35.4311 13.4712ZM32.9162 14.2196L23.6347 16.9962L24.3832 17.5275L23.6048 18.6202L22.003 17.4826L19.473 18.2385C22.8488 21.4492 26.7859 24.0536 30.506 26.8975C32.2874 24.2931 32.8563 21.1648 33.3802 17.9616C33.5823 16.7118 33.2231 15.4395 32.9162 14.2196ZM0.0770585 17.5126C0.0695735 17.6622 0.0770586 17.8119 0.0695735 17.9616C-0.310666 23.2229 0.747718 28.3419 6.24997 31.5226L7.00296 30.5871C3.35925 27.4064 1.26868 22.8038 1.26943 17.9616V17.5874L0.0770585 17.5126ZM2.69458 17.6772V17.9616C2.69458 19.6081 2.95805 21.2396 3.47676 22.8038L4.29937 21.045L5.51943 21.6138L4.16239 24.5176C5.05611 26.411 6.32632 28.0949 7.89368 29.4795L16.6886 18.5528L7.02542 17.9466L5.1841 19.7802L4.232 18.8223L5.22153 17.8344L2.69458 17.6772ZM30.2066 18.6576C30.3787 18.6501 30.5509 18.6726 30.723 18.7325C31.262 18.8971 31.6437 19.3387 31.8234 19.8401C32.003 20.3265 32.003 20.8804 31.8308 21.4267C31.6662 21.9655 31.3368 22.4221 30.9177 22.7289C30.4835 23.0208 29.9222 23.1705 29.3757 22.9983C29.1811 22.9385 29.009 22.8412 28.8593 22.7214L28.2754 23.3875L26.2096 21.6063L27.0928 20.5885L28.1781 21.524C28.1033 21.1273 28.1332 20.7082 28.2605 20.3041C28.4326 19.7578 28.7545 19.3087 29.1811 19.0094C29.4805 18.7998 29.8398 18.6651 30.2066 18.6576ZM10.6631 19.0692L12.8862 19.9074L12.4072 21.1648L10.1841 20.3265L10.6631 19.0692ZM18.7994 19.4135L19.1961 25.745C19.5554 25.8198 19.8847 25.9395 20.1766 26.1117C20.6781 26.4036 21.1048 26.905 21.1048 27.5411C21.1048 28.1773 20.6781 28.6787 20.1766 28.9706C19.9446 29.1053 19.6901 29.2101 19.4206 29.2849L19.6676 33.214C20.4985 33.1242 21.3144 32.967 22.1153 32.75L22.3772 30.5721L23.7096 30.7368L23.5224 32.286C25.9027 31.3804 28.0135 29.8911 29.6751 27.9602C28.1257 26.7403 26.2769 25.8722 25.0194 24.3006L24.4805 25.8048L23.2081 25.3558L23.8967 23.4174C21.7859 22.3697 20.4685 20.7681 18.7994 19.4135ZM17.4745 19.7353L8.94159 30.3177C11.5763 32.256 14.7649 33.3038 18.0359 33.3038H18.3203L18.0733 29.3972C17.5344 29.3597 17.0404 29.2175 16.6287 28.9706C16.1272 28.6787 15.7006 28.1773 15.7006 27.5411C15.7006 26.905 16.1272 26.4036 16.6287 26.1117C16.9805 25.9021 17.3997 25.7674 17.8488 25.7075L17.4745 19.7353ZM30.244 20.0047C30.1692 19.9973 30.0793 20.0272 29.9596 20.102C29.8024 20.2143 29.6377 20.4313 29.5479 20.7082C29.4656 20.9851 29.4805 21.2546 29.5404 21.4342C29.6078 21.6138 29.6976 21.6886 29.7799 21.7111C29.8698 21.741 29.982 21.7261 30.1392 21.6213C30.2889 21.5165 30.4611 21.2995 30.5509 21.0226C30.6332 20.7457 30.6183 20.4687 30.5584 20.2966C30.491 20.117 30.4012 20.0422 30.3189 20.0122C30.2964 20.0047 30.2739 20.0047 30.244 20.0047ZM8.29039 22.2425C8.61225 22.2499 8.9341 22.3248 9.23351 22.467C10.3039 22.9834 10.8278 24.2706 10.3114 25.3408C9.79488 26.4185 8.46255 26.8152 7.39219 26.2988C6.32033 25.7824 5.80087 24.5026 6.31584 23.4249C6.68859 22.6541 7.47452 22.235 8.29039 22.2425ZM8.22303 23.5821C7.92362 23.5896 7.65416 23.7467 7.52692 24.0087C7.34728 24.3904 7.51943 24.8693 7.97602 25.0864C8.43261 25.3034 8.91165 25.1388 9.09878 24.7571C9.27842 24.3829 9.10626 23.9039 8.64967 23.6869C8.50746 23.612 8.35776 23.5821 8.22303 23.5821ZM18.4027 27.0172C17.9536 27.0172 17.5494 27.137 17.3099 27.2717C17.0703 27.4139 17.0479 27.5187 17.0479 27.5411C17.0479 27.5636 17.0703 27.6684 17.3099 27.8106C17.5494 27.9453 17.9536 28.065 18.4027 28.065C18.8518 28.065 19.256 27.9453 19.4955 27.8106C19.735 27.6684 19.7575 27.5636 19.7575 27.5411C19.7575 27.5187 19.735 27.4139 19.4955 27.2717C19.256 27.137 18.8518 27.0172 18.4027 27.0172ZM30.7904 28.8433C27.991 32.1213 24.0464 34.1944 19.7575 34.636L19.8323 35.8334C24.6227 36.0804 29.1587 34.9877 31.7335 29.5843L30.7904 28.8433ZM12.3847 29.0679L14.488 29.2624L14.3682 30.6096L12.2649 30.415L12.3847 29.0679ZM8.05087 31.4253L7.30237 32.3608C10.0045 35.7286 14.0539 36.2301 18.0359 35.9232C18.1856 35.9082 18.3353 35.9232 18.485 35.9157L18.4102 34.7183C18.2829 34.7258 18.1632 34.7258 18.0359 34.7258C14.4431 34.7258 10.9401 33.5657 8.05087 31.4253Z" fill="#706D6D"/>
</svg>
