<svg width="36" height="36" viewBox="0 0 36 36" fill="none" xmlns="http://www.w3.org/2000/svg">
<g id="Vector">
<path fill-rule="evenodd" clip-rule="evenodd" d="M0.310122 16.9476C0.50869 16.7491 0.778006 16.6375 1.05882 16.6375H33.9666C34.2474 16.6375 34.5167 16.7491 34.7153 16.9476C34.9139 17.1462 35.0254 17.4155 35.0254 17.6963C35.0254 22.5352 33.1918 27.1852 29.9134 30.6212C28.6597 31.9352 27.2337 33.0305 25.69 33.8823H26.6538C27.2385 33.8823 27.7126 34.3564 27.7126 34.9412C27.7126 35.5259 27.2385 36 26.6538 36H8.37166C7.78689 36 7.31284 35.5259 7.31284 34.9412C7.31284 34.3564 7.78689 33.8823 8.37166 33.8823H9.33545C7.79171 33.0305 6.36569 31.9352 5.11199 30.6212C1.83358 27.1852 0 22.5352 0 17.6963C0 17.4155 0.111554 17.1462 0.310122 16.9476ZM17.5127 33.8823C21.5793 33.8823 25.4899 32.1897 28.3813 29.1593C31.0363 26.3767 32.6305 22.6755 32.8748 18.7552H2.15059C2.39487 22.6755 3.98907 26.3767 6.64411 29.1593C9.5355 32.1897 13.4461 33.8823 17.5127 33.8823Z" fill="#706D6D"/>
<path fill-rule="evenodd" clip-rule="evenodd" d="M30.7489 2.12377C29.9508 2.07383 29.1562 2.33124 28.5153 2.85918C28.1307 3.17605 27.5771 3.18178 27.1859 2.87292C26.8184 2.58273 26.4006 2.37773 25.9595 2.26801C25.5186 2.15832 25.0614 2.14557 24.616 2.23033C24.1705 2.3151 23.7436 2.49613 23.3627 2.7647C22.9817 3.03338 22.6543 3.38436 22.4037 3.79788C22.135 4.2413 21.5846 4.42486 21.1035 4.23157C20.5468 4.00792 19.9451 3.94752 19.3609 4.05498C18.7763 4.1625 18.2251 4.43521 17.7675 4.8503C17.3096 5.26576 16.9627 5.80863 16.7697 6.42406C16.5767 7.03967 16.5464 7.70017 16.683 8.33348C16.744 8.61641 16.6865 8.91198 16.5239 9.15143C16.3613 9.39088 16.1078 9.55333 15.8224 9.60101C15.0064 9.73726 14.2573 10.1938 13.7325 10.8959C13.2067 11.5993 12.9491 12.4932 13.0214 13.3978C13.0938 14.3022 13.4892 15.1344 14.1145 15.7315C14.7384 16.3272 15.5443 16.6457 16.3689 16.6376C16.9536 16.6319 17.4323 17.1013 17.438 17.6861C17.4437 18.2708 16.9743 18.7495 16.3896 18.7552C14.9997 18.7688 13.6652 18.2305 12.6521 17.2631C11.6404 16.297 11.0232 14.9752 10.9105 13.5667C10.7979 12.1584 11.1964 10.7517 12.0363 9.62799C12.6691 8.78144 13.5195 8.14058 14.4859 7.77764C14.4591 7.10709 14.5473 6.43399 14.7491 5.79043C15.0521 4.82417 15.6015 3.95611 16.3446 3.28192C17.0882 2.60735 17.9977 2.15254 18.9778 1.97227C19.6783 1.84342 20.393 1.8589 21.082 2.01404C21.3913 1.64248 21.7474 1.31259 22.1424 1.03404C22.7665 0.593922 23.4738 0.292012 24.2201 0.150003C24.9665 0.00797655 25.7331 0.0295022 26.4707 0.212991C26.947 0.331467 27.4035 0.515537 27.8287 0.758661C28.7456 0.208531 29.8057 -0.0570412 30.8811 0.0102542C32.2255 0.0943812 33.4841 0.691726 34.4221 1.67481C35.3589 2.65667 35.9126 3.95558 35.9905 5.32316C36.0541 6.44044 35.7973 7.54995 35.2561 8.51194C35.5494 9.05898 35.7535 9.65332 35.8596 10.2707C36.0079 11.1343 35.9611 12.0223 35.7222 12.8644C35.4833 13.7066 35.0581 14.4826 34.4769 15.1284C34.0949 15.553 33.6522 15.9137 33.1647 16.198C33.2179 16.7619 33.1924 17.3322 33.0877 17.8912C32.9801 18.466 32.427 18.8447 31.8522 18.7371C31.2774 18.6295 30.8986 18.0764 31.0062 17.5016C31.1094 16.9503 31.0946 16.3817 30.963 15.8376C30.8376 15.3191 31.1176 14.7882 31.6163 14.5988C32.1009 14.4149 32.5423 14.1125 32.9028 13.7119C33.2635 13.311 33.5327 12.8233 33.6849 12.2865C33.8372 11.7496 33.8674 11.1816 33.7725 10.6293C33.6776 10.077 33.4609 9.5592 33.1432 9.11688C32.8734 8.74124 32.8786 8.23393 33.1561 7.86391C33.6667 7.18308 33.9263 6.32189 33.8763 5.4436C33.8262 4.56544 33.471 3.74563 32.89 3.13667C32.3101 2.52894 31.5472 2.17373 30.7489 2.12377ZM27.3847 9.26597C27.8078 9.66965 27.8235 10.3399 27.4198 10.763L20.107 18.4273C19.7033 18.8504 19.0331 18.8661 18.61 18.4625C18.1869 18.0588 18.1712 17.3886 18.5749 16.9655L25.8877 9.30111C26.2914 8.87802 26.9616 8.86229 27.3847 9.26597Z" fill="#706D6D"/>
<path fill-rule="evenodd" clip-rule="evenodd" d="M7.07267 5.74657C8.63846 5.09253 10.3588 4.9473 12.0071 5.33188C13.6549 5.71634 15.1464 6.61045 16.2906 7.88887C16.6806 8.3246 16.6435 8.99399 16.2078 9.38398C15.772 9.77398 15.1026 9.7369 14.7127 9.30117C13.8513 8.33879 12.7396 7.6773 11.526 7.39414C10.3128 7.11109 9.04625 7.21716 7.88888 7.7006C6.73082 8.18434 5.73029 9.02607 5.02373 10.1244C4.31684 11.2232 3.93933 12.5248 3.94579 13.8592L3.94581 13.8643C3.9458 15.0757 4.26194 16.204 4.80203 17.1863C5.08378 17.6987 4.89678 18.3425 4.38436 18.6243C3.87194 18.906 3.22814 18.719 2.94639 18.2066C2.24367 16.9286 1.8286 15.452 1.82815 13.8668C1.82024 12.1298 2.31131 10.4265 3.24279 8.97863C4.17506 7.52951 5.50757 6.40033 7.07267 5.74657Z" fill="#706D6D"/>
</g>
</svg>
