<svg aria-hidden="true" style="position: absolute; width: 0; height: 0; overflow: hidden;" version="1.1" xmlns="http://www.w3.org/2000/svg" xmlns:xlink="http://www.w3.org/1999/xlink">
<defs>
<symbol id="icon-burger" viewBox="0 0 32 32">
<path d="M31.427 18.333c0-0.5-0.122-1.040-0.402-1.585 0.068-0.227 0.117-0.455 0.155-0.685 0.123-0.073 0.243-0.163 0.35-0.282 0.715-0.796 0.459-2.346 0.243-3.198-0.022-0.085-0.056-0.167-0.1-0.243 0.066-0.241 0.1-0.493 0.1-0.756 0.001-6.388-7.075-11.585-15.772-11.585s-15.773 5.196-15.773 11.585c0 0.262 0.035 0.515 0.1 0.756-0.044 0.075-0.077 0.157-0.1 0.241-0.216 0.852-0.472 2.399 0.239 3.194 0.070 0.426 0.189 0.854 0.369 1.278-0.169 0.405-0.258 0.839-0.262 1.278 0 0.407 0.038 0.803 0.108 1.189-0.269 0.629-0.409 1.305-0.411 1.989 0.001 4.786 2.729 10.49 15.728 10.49s15.727-5.704 15.727-10.489c-0.002-0.684-0.141-1.36-0.41-1.989 0.070-0.386 0.109-0.782 0.109-1.189zM30.706 11.585c0 2.693-5.91 4.502-14.706 4.502s-14.706-1.81-14.706-4.502c0-5.819 6.597-10.552 14.706-10.552s14.706 4.733 14.706 10.552zM16 30.968c-9.728 0-14.661-3.181-14.661-9.457 0-0.058 0.001-0.116 0.004-0.173 1.982 3.966 6.901 5.974 14.658 5.974s12.675-2.008 14.657-5.973c0.002 0.057 0.003 0.115 0.003 0.172 0 6.276-4.932 9.457-14.661 9.457zM30.641 18.030l-0.006-0.011-0.026 0.096c-1.282 3.169-5.308 5.363-13.162 5.6l-2.595 2.544c-0.077-0.002-0.157-0.002-0.233-0.004l-2.857-2.725c-6.014-0.624-9.234-2.635-10.363-5.393l-0.033-0.119-0.010 0.020c-0.012-0.030-0.027-0.059-0.038-0.090 0.846 1.325 2.31 2.571 4.605 3.548 1.801 0.767 3.397 1.066 4.782 1.026l-2.212-2.11c-0.698-0.179-1.381-0.412-2.043-0.697-0.787-0.331-1.541-0.737-2.25-1.213 0.174 0.062 0.356 0.104 0.555 0.104 0.425 0 0.835-0.145 1.197-0.273 0.11-0.038 0.267-0.094 0.391-0.129 0.055 0.098 0.117 0.218 0.164 0.311 0.266 0.52 0.628 1.232 1.391 1.452 0.138 0.039 0.283 0.059 0.43 0.059 0.556 0 1.036-0.278 1.459-0.523 0.1-0.059 0.234-0.135 0.343-0.19 0.071 0.087 0.151 0.196 0.212 0.28 0.342 0.464 0.81 1.1 1.583 1.201 0.067 0.009 0.132 0.013 0.198 0.013 0.66 0 1.182-0.413 1.602-0.746 0.088-0.070 0.204-0.163 0.302-0.232 0.083 0.078 0.178 0.176 0.252 0.252 0.421 0.434 0.946 0.974 1.72 0.974s1.298-0.54 1.72-0.974c0.074-0.076 0.169-0.174 0.252-0.252 0.098 0.069 0.213 0.162 0.302 0.232 0.419 0.333 0.942 0.747 1.602 0.747 0.066 0 0.132-0.004 0.197-0.012 0.176-0.023 0.348-0.076 0.507-0.155l-1.262 1.238c1.372 0.319 3.036 0.334 5.017-0.099 3.924-0.857 5.924-2.771 6.627-4.849-0.073 0.375-0.18 0.743-0.322 1.098zM1.942 16.328l0.071 0c0.123 0 0.251-0.005 0.38-0.009 0.107-0.004 0.214-0.009 0.319-0.009 0.054 0 0.098 0.002 0.133 0.003 0.032 0.107 0.065 0.244 0.090 0.349 0.096 0.396 0.221 0.89 0.518 1.288-0.628-0.516-1.13-1.061-1.511-1.623zM20.93 20.413c0.296-0.239 0.527-0.546 0.728-0.819 0.062-0.084 0.143-0.193 0.213-0.28 0.109 0.055 0.241 0.132 0.342 0.19 0.422 0.245 0.901 0.523 1.458 0.523 0.147 0 0.292-0.020 0.43-0.059 0.763-0.22 1.126-0.932 1.392-1.452 0.047-0.093 0.109-0.213 0.164-0.31 0.125 0.035 0.282 0.091 0.392 0.129 0.363 0.127 0.773 0.273 1.198 0.273 0.118 0 0.229-0.017 0.339-0.038-1.005 0.645-2.286 1.175-3.894 1.526-0.907 0.202-1.832 0.308-2.761 0.318zM28.71 17.696c0.183-0.341 0.277-0.716 0.354-1.031 0.025-0.104 0.058-0.242 0.090-0.348 0.035-0.002 0.078-0.003 0.131-0.003 0.106 0 0.214 0.004 0.322 0.008 0.071 0.003 0.139 0.003 0.209 0.005-0.302 0.506-0.674 0.967-1.105 1.37zM30.76 15.092c-0.154 0.171-0.443 0.206-0.771 0.206-0.226 0-0.472-0.017-0.704-0.017-0.315 0-0.608 0.030-0.802 0.172-0.493 0.361-0.37 1.75-0.966 2.063-0.079 0.041-0.17 0.059-0.27 0.059-0.502 0-1.224-0.436-1.756-0.436-0.087-0.002-0.175 0.013-0.257 0.044-0.579 0.227-0.782 1.61-1.42 1.793-0.047 0.013-0.095 0.020-0.143 0.019-0.561 0-1.331-0.78-1.917-0.78-0.040 0-0.079 0.004-0.118 0.011-0.616 0.125-1.044 1.459-1.696 1.544-0.021 0.002-0.043 0.004-0.064 0.004-0.604 0-1.324-1.058-1.949-1.058l-0.034 0.001c-0.634 0.040-1.238 1.305-1.893 1.305s-1.259-1.265-1.892-1.305c-0.011-0.001-0.023-0.001-0.034-0.001-0.625 0-1.345 1.058-1.949 1.058-0.021 0-0.042-0.001-0.063-0.004-0.652-0.086-1.078-1.42-1.696-1.544-0.039-0.008-0.078-0.012-0.118-0.011-0.587 0-1.357 0.78-1.918 0.78-0.049 0-0.097-0.006-0.143-0.019-0.638-0.183-0.841-1.567-1.421-1.793-0.082-0.031-0.169-0.046-0.257-0.044-0.531 0-1.252 0.436-1.754 0.436-0.1 0-0.192-0.018-0.272-0.059-0.596-0.315-0.474-1.704-0.966-2.063-0.196-0.143-0.49-0.173-0.805-0.173-0.231 0-0.475 0.017-0.699 0.017-0.33 0-0.619-0.035-0.773-0.207-0.243-0.271-0.227-0.901-0.159-1.426 2.278 2.509 8.768 3.456 14.92 3.456s12.642-0.947 14.92-3.456c0.067 0.526 0.083 1.157-0.16 1.429z"></path>
<path d="M6.921 7.237l-0.807-0.774-0.807 0.774 0.807 0.774 0.807-0.774zM10.095 6.739l0.807-0.774-0.807-0.774-0.807 0.774 0.807 0.774zM13.161 9.5l-0.807-0.774-0.807 0.774 0.807 0.774 0.807-0.774zM15.952 6.722l-0.538-0.516-0.539 0.516 0.539 0.516 0.538-0.516zM24.879 8.726l0.539 0.516 0.539-0.516-0.539-0.516-0.539 0.516zM29.224 9.242l-0.538-0.516-0.539 0.516 0.539 0.516 0.538-0.516zM23.006 5.449l-0.538-0.516-0.539 0.516 0.539 0.516 0.538-0.516zM6.725 4.804l-0.538-0.516-0.539 0.516 0.539 0.516 0.538-0.516zM3.853 7.237l-0.538-0.516-0.538 0.516 0.538 0.516 0.538-0.516zM6.114 10.645l0.539 0.516 0.538-0.516-0.538-0.516-0.539 0.516zM13.43 2.739l-0.538-0.516-0.538 0.516 0.538 0.516 0.538-0.516zM18.51 2.223l-0.538-0.516-0.539 0.516 0.539 0.516 0.538-0.516zM10.094 3.255l-0.538-0.516-0.538 0.516 0.538 0.516 0.538-0.516zM25.382 4.481l-0.538-0.516-0.539 0.516 0.539 0.516 0.538-0.516zM18.78 11.74l0.807-0.774-0.807-0.774-0.808 0.774 0.808 0.774zM18.322 6.997l-0.807-0.774-0.807 0.774 0.807 0.774 0.807-0.774zM21.297 4.029l-0.807-0.774-0.808 0.774 0.808 0.774 0.807-0.774zM22.009 7.342l0.807 0.774 0.808-0.774-0.808-0.774-0.807 0.774zM27.032 6.223l-0.808-0.774-0.808 0.774 0.808 0.774 0.808-0.774zM23.624 11.531l0.807-0.774-0.807-0.774-0.808 0.774 0.808 0.774zM3.315 9.417l0.808 0.774 0.807-0.774-0.807-0.774-0.808 0.774z"></path>
</symbol>
<symbol id="icon-beer" viewBox="0 0 32 32">
<path  d="M24.5 13h-1.5v-0.359c0.504-0.57 0.835-1.273 0.954-2.025s0.020-1.522-0.285-2.22c-0.304-0.698-0.802-1.294-1.433-1.719s-1.372-0.66-2.133-0.678c-0.319-1.114-0.912-2.13-1.724-2.956-0.635-0.65-1.394-1.166-2.232-1.517s-1.738-0.531-2.647-0.527c-1.869 0-3.611 0.768-4.938 2.167-0.651-0.207-1.348-0.22-2.006-0.036s-1.247 0.557-1.696 1.072c-0.449 0.515-0.737 1.151-0.829 1.827s0.016 1.366 0.311 1.982c-0.473 0.42-0.84 0.947-1.070 1.537s-0.316 1.226-0.252 1.856c0.064 0.63 0.277 1.235 0.621 1.767s0.81 0.973 1.358 1.289v13.038c0.001 0.928 0.37 1.818 1.026 2.474s1.546 1.025 2.474 1.026h11c0.928-0.001 1.818-0.37 2.474-1.026s1.025-1.546 1.026-2.474v-0.5h1.5c1.193-0.001 2.337-0.476 3.181-1.319s1.318-1.987 1.319-3.181v-5c-0.001-1.193-0.476-2.337-1.319-3.18s-1.987-1.318-3.181-1.32zM11 26c0 0.265-0.105 0.52-0.293 0.707s-0.442 0.293-0.707 0.293c-0.265 0-0.52-0.105-0.707-0.293s-0.293-0.442-0.293-0.707v-10c0-0.265 0.105-0.52 0.293-0.707s0.442-0.293 0.707-0.293c0.265 0 0.52 0.105 0.707 0.293s0.293 0.442 0.293 0.707v10zM15 26c0 0.265-0.105 0.52-0.293 0.707s-0.442 0.293-0.707 0.293c-0.265 0-0.52-0.105-0.707-0.293s-0.293-0.442-0.293-0.707v-10c0-0.265 0.105-0.52 0.293-0.707s0.442-0.293 0.707-0.293c0.265 0 0.52 0.105 0.707 0.293s0.293 0.442 0.293 0.707v10zM19 26c0 0.265-0.105 0.52-0.293 0.707s-0.442 0.293-0.707 0.293c-0.265 0-0.52-0.105-0.707-0.293s-0.293-0.442-0.293-0.707v-10c0-0.265 0.105-0.52 0.293-0.707s0.442-0.293 0.707-0.293c0.265 0 0.52 0.105 0.707 0.293s0.293 0.442 0.293 0.707v10zM20 12c-0.521 0-1.284-0.324-1.668-0.707-0.187-0.188-0.442-0.293-0.707-0.293h-7.625c-0.205 0.001-0.405 0.064-0.572 0.182s-0.295 0.284-0.365 0.477c-0.427 1.168-1.475 1.342-2.063 1.342-0.53 0-1.039-0.211-1.414-0.586s-0.586-0.884-0.586-1.414c0-0.53 0.211-1.039 0.586-1.414s0.884-0.586 1.414-0.586c0.006 0 0.57 0.021 1.025 0.363 0.105 0.079 0.225 0.136 0.352 0.169s0.26 0.040 0.39 0.021c0.13-0.018 0.255-0.063 0.368-0.129s0.212-0.155 0.29-0.26c0.079-0.105 0.136-0.225 0.169-0.352s0.040-0.26 0.021-0.39c-0.019-0.13-0.063-0.255-0.13-0.368s-0.155-0.212-0.26-0.29c-0.648-0.472-1.423-0.738-2.225-0.763-0.294 0-0.588 0.033-0.875 0.098-0.099-0.228-0.14-0.478-0.119-0.725s0.104-0.487 0.24-0.695c0.136-0.208 0.322-0.379 0.541-0.497s0.464-0.18 0.713-0.18c0.236-0.001 0.469 0.054 0.68 0.161s0.393 0.263 0.531 0.454c0.113 0.155 0.211 0.321 0.294 0.494 0.027 0.255 0.151 0.49 0.346 0.656s0.447 0.251 0.703 0.237 0.497-0.126 0.673-0.312c0.176-0.186 0.274-0.433 0.273-0.689 0-0.423-0.226-0.948-0.673-1.563-0.029-0.039-0.063-0.078-0.091-0.116 0.912-0.856 2.053-1.321 3.263-1.321 0.643-0.002 1.28 0.125 1.873 0.374s1.13 0.614 1.579 1.074c0.562 0.576 0.976 1.279 1.209 2.050s0.276 1.586 0.127 2.376c-0.025 0.129-0.023 0.262 0.003 0.39s0.078 0.251 0.152 0.359c0.074 0.109 0.168 0.202 0.278 0.274s0.233 0.122 0.362 0.146c0.062 0.012 0.125 0.017 0.187 0.018 0.233-0 0.458-0.082 0.637-0.23s0.301-0.354 0.344-0.583c0.076-0.4 0.117-0.806 0.122-1.214 0.489 0.094 0.925 0.366 1.224 0.764s0.438 0.893 0.391 1.389c-0.047 0.495-0.277 0.956-0.645 1.291s-0.848 0.521-1.345 0.521zM27 22.5c0 0.663-0.263 1.299-0.732 1.768s-1.105 0.732-1.768 0.732h-1.5v-10h1.5c0.663 0 1.299 0.263 1.768 0.732s0.732 1.105 0.732 1.768v5z"></path>
</symbol>
<symbol id="icon-pizza" viewBox="0 0 32 32">
<path  d="M15.999 0c-3.032 0.006-6 0.876-8.556 2.507l0.605 0.876c2.389-1.515 5.156-2.319 7.984-2.319 1.816 0 3.619 0.331 5.316 0.979l0.419-0.979c-1.83-0.704-3.774-1.065-5.735-1.065h-0.033zM22.872 1.538l-0.419 0.979c3.613 1.724 6.381 4.828 7.678 8.613l1.018-0.306c-0.958-4.337-3.726-7.81-8.277-9.286zM15.992 2.328c-2.555 0.007-5.063 0.733-7.226 2.095l7.139 10.312c2.076-3.712 3.639-7.584 4.943-11.529-1.537-0.581-3.174-0.878-4.817-0.878h-0.040zM17.948 2.922l1.271 1.587-0.931 0.748-1.271-1.588 0.931-0.748zM6.458 3.188c-4.985 2.679-6.085 6.737-6.314 11.181l1.063 0.067c0.425-4.118 2.547-7.877 5.856-10.372l-0.605-0.875zM13.783 3.659c0.546 0 1.051 0.141 1.457 0.412s0.732 0.715 0.732 1.251c0 0.539-0.326 0.978-0.732 1.251s-0.912 0.412-1.457 0.412c-0.546 0-1.051-0.14-1.457-0.412s-0.732-0.712-0.732-1.251c0-0.536 0.326-0.98 0.732-1.251s0.912-0.412 1.457-0.412zM21.953 3.679c-1.218 3.944-2.774 7.749-4.864 11.342l4.544-1.357c-0.213-0.326-0.333-0.725-0.333-1.144 0-0.998 0.699-1.916 1.69-1.916s1.69 0.918 1.69 1.916c0 0.080-0.007 0.16-0.013 0.246l4.251-1.271c-1.191-3.426-3.699-6.241-6.966-7.816zM13.783 4.856c-0.333 0-0.619 0.096-0.792 0.21s-0.2 0.203-0.2 0.255 0.027 0.142 0.2 0.255c0.173 0.117 0.459 0.21 0.792 0.21s0.619-0.093 0.792-0.21c0.173-0.114 0.2-0.203 0.2-0.255s-0.027-0.142-0.2-0.255c-0.173-0.114-0.459-0.21-0.792-0.21zM7.782 5.104c-2.991 2.274-4.913 5.68-5.312 9.412 4.168 0.040 8.326 0.12 12.371 0.772l-1.271-1.836-1.231 0.672-0.572-1.051 1.118-0.612-3.792-5.462-1.537 1.217-0.745-0.945 1.597-1.264-0.625-0.903zM23.324 6.020l0.812 1.337-1.025 0.625-0.812-1.337 1.025-0.625zM16.238 7.557l0.519 1.078-2.009 0.951-0.519-1.078 2.009-0.951zM7.21 8.981c1.131 0 1.969 1.038 1.969 2.195s-0.838 2.195-1.969 2.195c-1.131 0-1.969-1.038-1.969-2.195s0.838-2.195 1.969-2.195zM27.037 9.599l0.246 1.836-1.184 0.16-0.246-1.836 1.184-0.16zM7.21 10.178c-0.379 0-0.772 0.393-0.772 0.998s0.393 0.998 0.772 0.998 0.772-0.392 0.772-0.998c0-0.605-0.393-0.998-0.772-0.998zM22.991 11.801c-0.213 0-0.492 0.259-0.492 0.719s0.279 0.719 0.492 0.719c0.213 0 0.492-0.259 0.492-0.719s-0.279-0.719-0.492-0.719zM31.494 11.974l-1.025 0.299c0.306 1.204 0.466 2.448 0.466 3.692 0 3.133-0.985 6.187-2.821 8.728l0.838 0.659c1.983-2.727 3.047-6.014 3.047-9.387 0-1.344-0.166-2.688-0.506-3.991zM29.259 12.64l-8.25 2.468 0.665 0.472-0.692 0.971-1.424-1.011-2.249 0.672c3.001 2.854 6.5 5.169 9.807 7.697 1.583-2.315 2.089-5.096 2.555-7.943 0.18-1.111-0.14-2.242-0.412-3.326zM0.069 15.567c-0.007 0.133 0 0.266-0.007 0.399-0.338 4.677 0.603 9.227 5.494 12.054l0.669-0.832c-3.239-2.827-5.097-6.918-5.096-11.223v-0.333l-1.060-0.066zM2.395 15.713v0.253c0 1.464 0.234 2.914 0.695 4.304l0.731-1.563 1.084 0.506-1.206 2.581c0.794 1.683 1.923 3.18 3.317 4.411l7.818-9.713-8.589-0.539-1.637 1.63-0.846-0.851 0.88-0.878-2.246-0.14zM26.85 16.585c0.153-0.007 0.306 0.013 0.459 0.067 0.479 0.146 0.818 0.539 0.978 0.985 0.16 0.432 0.16 0.925 0.007 1.41-0.146 0.479-0.439 0.885-0.812 1.157-0.386 0.259-0.885 0.393-1.371 0.239-0.173-0.053-0.326-0.14-0.459-0.246l-0.519 0.592-1.836-1.583 0.785-0.905 0.965 0.832c-0.067-0.353-0.040-0.725 0.073-1.084 0.153-0.486 0.439-0.885 0.818-1.151 0.266-0.186 0.585-0.306 0.912-0.313zM9.478 16.95l1.976 0.745-0.426 1.118-1.976-0.745 0.426-1.118zM16.711 17.256l0.353 5.628c0.319 0.067 0.612 0.173 0.872 0.326 0.446 0.259 0.825 0.705 0.825 1.271s-0.379 1.011-0.825 1.271c-0.206 0.12-0.432 0.213-0.672 0.279l0.22 3.493c0.739-0.080 1.464-0.22 2.176-0.412l0.233-1.936 1.184 0.146-0.166 1.377c2.116-0.805 3.992-2.129 5.469-3.845-1.377-1.084-3.021-1.856-4.138-3.253l-0.479 1.337-1.131-0.399 0.612-1.723c-1.876-0.931-3.047-2.355-4.531-3.559zM15.533 17.543l-7.585 9.407c2.342 1.723 5.176 2.654 8.084 2.654h0.253l-0.22-3.473c-0.479-0.033-0.918-0.16-1.284-0.379-0.446-0.259-0.825-0.705-0.825-1.271s0.379-1.011 0.825-1.271c0.313-0.186 0.685-0.306 1.085-0.359l-0.333-5.309zM26.884 17.782c-0.067-0.007-0.146 0.020-0.253 0.087-0.14 0.1-0.286 0.293-0.366 0.539-0.073 0.246-0.060 0.486-0.007 0.645 0.060 0.16 0.14 0.226 0.213 0.246 0.080 0.027 0.18 0.013 0.319-0.080 0.133-0.093 0.286-0.286 0.366-0.532 0.073-0.246 0.060-0.492 0.007-0.645-0.060-0.16-0.14-0.226-0.213-0.253-0.020-0.007-0.040-0.007-0.067-0.007zM7.369 19.771c0.286 0.007 0.572 0.073 0.838 0.2 0.951 0.459 1.417 1.603 0.958 2.555-0.459 0.958-1.643 1.311-2.595 0.852-0.953-0.459-1.415-1.597-0.957-2.555 0.331-0.685 1.030-1.058 1.755-1.051zM7.309 20.962c-0.266 0.007-0.506 0.146-0.619 0.379-0.16 0.339-0.007 0.765 0.399 0.958s0.832 0.047 0.998-0.293c0.16-0.333 0.007-0.758-0.399-0.951-0.126-0.067-0.259-0.093-0.379-0.093zM16.358 24.015c-0.399 0-0.758 0.107-0.971 0.226-0.213 0.126-0.233 0.22-0.233 0.239s0.020 0.113 0.233 0.24c0.213 0.12 0.572 0.226 0.971 0.226s0.759-0.106 0.971-0.226c0.213-0.126 0.233-0.22 0.233-0.24s-0.020-0.113-0.233-0.239c-0.213-0.12-0.572-0.226-0.971-0.226zM27.369 25.639c-2.488 2.914-5.995 4.757-9.807 5.149l0.067 1.064c4.258 0.22 8.29-0.752 10.579-5.555l-0.838-0.659zM11.009 25.838l1.87 0.173-0.107 1.198-1.87-0.173 0.107-1.197zM7.156 27.934l-0.665 0.832c2.402 2.994 6.001 3.439 9.541 3.167 0.133-0.013 0.266 0 0.399-0.007l-0.067-1.064c-0.113 0.007-0.22 0.007-0.333 0.007-3.194 0-6.307-1.031-8.876-2.934z"></path>
</symbol>
<symbol id="icon-salad" viewBox="0 0 32 32">
<path  d="M0.276 15.065c0.176-0.176 0.416-0.276 0.665-0.276h29.251c0.25 0 0.489 0.099 0.666 0.276s0.276 0.416 0.276 0.665c0 4.301-1.63 8.435-4.544 11.489-1.114 1.168-2.382 2.142-3.754 2.899h0.857c0.52 0 0.941 0.421 0.941 0.941s-0.421 0.941-0.941 0.941h-16.251c-0.52 0-0.941-0.421-0.941-0.941s0.421-0.941 0.941-0.941h0.857c-1.372-0.757-2.64-1.731-3.754-2.899-2.914-3.054-4.544-7.188-4.544-11.489 0-0.25 0.099-0.489 0.276-0.665zM15.567 30.118c3.615 0 7.091-1.505 9.661-4.198 2.36-2.473 3.777-5.763 3.994-9.248h-27.31c0.217 3.485 1.634 6.775 3.994 9.248 2.57 2.694 6.046 4.198 9.661 4.198z"></path>
<path  d="M27.332 1.888c-0.709-0.044-1.416 0.184-1.985 0.654-0.342 0.282-0.834 0.287-1.182 0.012-0.327-0.258-0.698-0.44-1.090-0.538s-0.798-0.109-1.194-0.034c-0.396 0.075-0.775 0.236-1.114 0.475s-0.63 0.551-0.852 0.918c-0.239 0.394-0.728 0.557-1.156 0.385-0.495-0.199-1.030-0.252-1.549-0.157s-1.010 0.338-1.416 0.707c-0.407 0.369-0.715 0.852-0.887 1.399s-0.198 1.134-0.077 1.697c0.054 0.252 0.003 0.514-0.141 0.727s-0.37 0.357-0.624 0.4c-0.725 0.121-1.391 0.527-1.858 1.151-0.467 0.625-0.696 1.42-0.632 2.224s0.416 1.544 0.972 2.074c0.555 0.53 1.271 0.813 2.004 0.805 0.52-0.005 0.945 0.412 0.95 0.932s-0.412 0.945-0.932 0.95c-1.235 0.012-2.422-0.466-3.322-1.326-0.899-0.859-1.448-2.034-1.548-3.286s0.254-2.502 1.001-3.501c0.563-0.752 1.318-1.322 2.177-1.645-0.024-0.596 0.055-1.194 0.234-1.766 0.269-0.859 0.758-1.631 1.418-2.23s1.469-1.004 2.341-1.164c0.623-0.115 1.258-0.101 1.87 0.037 0.275-0.33 0.591-0.624 0.943-0.871 0.555-0.391 1.183-0.66 1.847-0.786s1.345-0.107 2.001 0.056c0.423 0.105 0.829 0.269 1.207 0.485 0.815-0.489 1.757-0.725 2.713-0.665 1.195 0.075 2.314 0.606 3.148 1.48 0.833 0.873 1.325 2.027 1.394 3.243 0.057 0.993-0.172 1.979-0.653 2.834 0.261 0.486 0.442 1.015 0.536 1.563 0.132 0.768 0.090 1.557-0.122 2.306s-0.59 1.438-1.107 2.012c-0.34 0.377-0.733 0.698-1.166 0.951 0.047 0.501 0.025 1.008-0.068 1.505-0.096 0.511-0.587 0.848-1.098 0.752s-0.848-0.587-0.752-1.098c0.092-0.49 0.079-0.995-0.038-1.479-0.111-0.461 0.137-0.933 0.581-1.101 0.431-0.163 0.823-0.432 1.144-0.788s0.56-0.79 0.695-1.267c0.135-0.477 0.162-0.982 0.078-1.473s-0.277-0.951-0.559-1.344c-0.24-0.334-0.235-0.785 0.011-1.114 0.454-0.605 0.685-1.371 0.64-2.151s-0.36-1.509-0.877-2.051c-0.515-0.54-1.194-0.856-1.903-0.9zM24.342 8.236c0.376 0.359 0.39 0.955 0.031 1.331l-6.5 6.813c-0.359 0.376-0.955 0.39-1.331 0.031s-0.39-0.955-0.031-1.331l6.5-6.813c0.359-0.376 0.955-0.39 1.331-0.031z"></path>
<path  d="M6.287 5.108c1.392-0.581 2.921-0.71 4.386-0.369s2.79 1.136 3.808 2.273c0.347 0.387 0.314 0.982-0.074 1.329s-0.982 0.314-1.329-0.074c-0.766-0.855-1.754-1.443-2.833-1.695s-2.204-0.157-3.233 0.272c-1.029 0.43-1.919 1.178-2.547 2.155s-0.964 2.134-0.958 3.32l0 0.005c0 1.077 0.281 2.080 0.761 2.953 0.25 0.455 0.084 1.028-0.371 1.278s-1.028 0.084-1.278-0.371c-0.625-1.136-0.994-2.449-0.994-3.858-0.007-1.544 0.429-3.058 1.257-4.345 0.829-1.288 2.013-2.292 3.404-2.873z"></path>
</symbol>
</defs>
</svg>
